<svg width="90" height="17" viewBox="0 0 90 17" fill="none" xmlns="http://www.w3.org/2000/svg">
<path d="M20.6788 1.9466C20.8778 1.33389 21.7447 1.33389 21.9437 1.9466L22.9704 5.10644C23.0595 5.38045 23.3148 5.56597 23.6029 5.56597L26.9254 5.56597C27.5696 5.56597 27.8375 6.39036 27.3163 6.76904L24.6284 8.72193C24.3953 8.89127 24.2977 9.19145 24.3868 9.46546L25.4135 12.6253C25.6125 13.238 24.9113 13.7475 24.3901 13.3688L21.7022 11.4159C21.4691 11.2466 21.1534 11.2466 20.9204 11.4159L18.2324 13.3688C17.7112 13.7475 17.01 13.238 17.209 12.6253L18.2357 9.46546C18.3248 9.19145 18.2272 8.89127 17.9941 8.72193L15.3062 6.76904C14.785 6.39036 15.0529 5.56597 15.6971 5.56597L19.0196 5.56597C19.3077 5.56597 19.563 5.38045 19.6521 5.10644L20.6788 1.9466Z" fill="white"/>
<path d="M35.782 1.9466C35.9811 1.33389 36.8479 1.33389 37.047 1.9466L38.0737 5.10644C38.1627 5.38045 38.4181 5.56597 38.7062 5.56597L42.0287 5.56597C42.6729 5.56597 42.9408 6.39036 42.4196 6.76904L39.7316 8.72193C39.4985 8.89127 39.401 9.19145 39.49 9.46546L40.5167 12.6253C40.7158 13.238 40.0145 13.7475 39.4933 13.3688L36.8054 11.4159C36.5723 11.2466 36.2567 11.2466 36.0236 11.4159L33.3357 13.3688C32.8145 13.7475 32.1132 13.238 32.3123 12.6253L33.339 9.46546C33.428 9.19145 33.3305 8.89127 33.0974 8.72193L30.4095 6.76904C29.8883 6.39036 30.1562 5.56597 30.8004 5.56597L34.1229 5.56597C34.411 5.56597 34.6663 5.38045 34.7553 5.10644L35.782 1.9466Z" fill="white"/>
<path d="M50.8856 1.9466C51.0846 1.33389 51.9514 1.33389 52.1505 1.9466L53.1772 5.10644C53.2663 5.38045 53.5216 5.56597 53.8097 5.56597L57.1322 5.56597C57.7764 5.56597 58.0443 6.39036 57.5231 6.76904L54.8351 8.72193C54.6021 8.89127 54.5045 9.19145 54.5936 9.46546L55.6203 12.6253C55.8193 13.238 55.1181 13.7475 54.5969 13.3688L51.9089 11.4159C51.6759 11.2466 51.3602 11.2466 51.1271 11.4159L48.4392 13.3688C47.918 13.7475 47.2168 13.238 47.4158 12.6253L48.4425 9.46546C48.5316 9.19145 48.434 8.89127 48.2009 8.72193L45.513 6.76904C44.9918 6.39036 45.2597 5.56597 45.9039 5.56597L49.2264 5.56597C49.5145 5.56597 49.7698 5.38045 49.8589 5.10644L50.8856 1.9466Z" fill="white"/>
<path d="M65.9891 1.9466C66.1881 1.33389 67.055 1.33389 67.254 1.9466L68.2807 5.10644C68.3698 5.38045 68.6251 5.56597 68.9132 5.56597L72.2357 5.56597C72.8799 5.56597 73.1478 6.39036 72.6266 6.76904L69.9387 8.72193C69.7056 8.89127 69.608 9.19145 69.6971 9.46546L70.7238 12.6253C70.9228 13.238 70.2216 13.7475 69.7004 13.3688L67.0125 11.4159C66.7794 11.2466 66.4637 11.2466 66.2307 11.4159L63.5427 13.3688C63.0215 13.7475 62.3203 13.238 62.5193 12.6253L63.546 9.46546C63.6351 9.19145 63.5375 8.89127 63.3045 8.72193L60.6165 6.76904C60.0953 6.39036 60.3632 5.56597 61.0074 5.56597L64.3299 5.56597C64.618 5.56597 64.8733 5.38045 64.9624 5.10644L65.9891 1.9466Z" fill="#DADADA"/>
<path d="M81.0923 1.9466C81.2914 1.33389 82.1582 1.33389 82.3573 1.9466L83.384 5.10644C83.473 5.38045 83.7284 5.56597 84.0165 5.56597L87.339 5.56597C87.9832 5.56597 88.2511 6.39036 87.7299 6.76904L85.0419 8.72193C84.8088 8.89127 84.7113 9.19145 84.8003 9.46546L85.827 12.6253C86.0261 13.238 85.3248 13.7475 84.8037 13.3688L82.1157 11.4159C81.8826 11.2466 81.567 11.2466 81.3339 11.4159L78.646 13.3688C78.1248 13.7475 77.4235 13.238 77.6226 12.6253L78.6493 9.46546C78.7383 9.19145 78.6408 8.89127 78.4077 8.72193L75.7198 6.76904C75.1986 6.39036 75.4665 5.56597 76.1107 5.56597L79.4332 5.56597C79.7213 5.56597 79.9766 5.38045 80.0656 5.10644L81.0923 1.9466Z" fill="#A0A0A0"/>
<ellipse cx="3.6153" cy="9.03812" rx="3.6153" ry="3.6153" fill="#7D7D7D"/>
</svg>
